# xmcd CD database file
#
# Track frame offsets:
#	150
#	16699
#	19579
#	43116
#	61518
#	83740
#	101272
#	121212
#	136859
#	158659
#	174399
#
# Disc length: 2648 seconds
#
# Revision: 6
# Processed by: cddbd v1.5.1PL0 Copyright (c) Steve Scherf et al.
# Submitted via: CDex 1.51
#
DISCID=6f0a560b
DTITLE=Hitotoyou - hitoomoi
DYEAR=2004
DGENRE=Pop
TTITLE0=Kyou Wazurai
TTITLE1=INTERLUDE
TTITLE2=Hitoshian
TTITLE3=Irohamomiji
TTITLE4=Omokage Modern
TTITLE5=Uyamuya
TTITLE6=Kingyosukui
TTITLE7=Edo Poruka
TTITLE8=Darjar
TTITLE9=Yumenakaba
TTITLE10=Hanamizuki
EXTD=YEAR: 2004
EXTT0=
EXTT1=
EXTT2=
EXTT3=
EXTT4=
EXTT5=
EXTT6=
EXTT7=
EXTT8=
EXTT9=
EXTT10=
PLAYORDER=
